<?xml version="1.0" encoding="UTF-8" standalone="no"?>
<svg
   version="1.1"
   id="Layer_1"
   x="0px"
   y="0px"
   width="100%"
   viewBox="0 0 2316 2316"
   enable-background="new 0 0 2316 2316"
   xml:space="preserve"
   sodipodi:docname="mask-icon.svg"
   inkscape:version="1.4.3 (0d15f75042, 2025-12-25)"
   xmlns:inkscape="http://www.inkscape.org/namespaces/inkscape"
   xmlns:sodipodi="http://sodipodi.sourceforge.net/DTD/sodipodi-0.dtd"
   xmlns="http://www.w3.org/2000/svg"
   xmlns:svg="http://www.w3.org/2000/svg"><defs
   id="defs8" /><sodipodi:namedview
   id="namedview8"
   pagecolor="#ffffff"
   bordercolor="#000000"
   borderopacity="0.25"
   inkscape:showpageshadow="2"
   inkscape:pageopacity="0.0"
   inkscape:pagecheckerboard="0"
   inkscape:deskcolor="#d1d1d1"
   inkscape:zoom="0.27547496"
   inkscape:cx="1156.1849"
   inkscape:cy="1158"
   inkscape:window-width="1536"
   inkscape:window-height="891"
   inkscape:window-x="0"
   inkscape:window-y="0"
   inkscape:window-maximized="1"
   inkscape:current-layer="Layer_1" />
<path
   fill="#FF0000"
   opacity="1.000000"
   stroke="none"
   d=" M2.000000,1244.000000   C2.000000,1194.624878 2.000000,1145.249756 2.838160,1095.023560   C4.335443,1092.407349 5.426764,1090.679321 5.581423,1088.870972   C6.401782,1079.279053 6.632643,1069.626709 7.720603,1060.069458   C10.873687,1032.371338 13.742212,1004.620911 17.801184,977.049805   C27.074144,914.061646 42.680603,852.530884 62.838184,792.192017   C83.650345,729.893738 109.511581,669.688965 140.853088,611.953369   C199.407379,504.087860 272.611542,407.391693 361.666992,322.709045   C405.420258,281.104187 451.840424,242.895065 501.404572,208.479828   C595.281921,143.295395 696.536377,93.028084 805.378784,58.020382   C885.419800,32.276237 967.150146,14.946745 1050.953857,7.633025   C1058.889893,6.940430 1066.835938,6.352753 1074.761597,5.558597   C1076.622314,5.372144 1079.803833,5.784248 1078.000000,2.000000   C1132.708496,2.000000 1187.416870,2.000000 1242.612549,2.781799   C1244.900635,4.256897 1246.671143,5.459494 1248.506592,5.568462   C1287.011841,7.854433 1325.135620,13.132776 1363.121460,19.668961   C1420.918457,29.614033 1477.582275,44.104126 1533.066772,62.941719   C1591.113037,82.649094 1647.305542,106.768570 1701.555664,135.477295   C1755.237183,163.885178 1806.467407,196.098312 1855.005615,232.521255   C1912.892212,275.959137 1966.545776,324.108673 2015.328491,377.692932   C2041.787354,406.756104 2067.113037,436.728210 2090.502930,468.264923   C2136.229492,529.917664 2175.862793,595.253784 2208.687744,664.747253   C2240.044922,731.133362 2265.040771,799.758972 2283.344238,870.812561   C2294.211182,912.996399 2303.120117,955.602966 2308.417480,998.893127   C2310.472900,1015.691650 2312.339355,1032.513306 2314.413818,1049.309326   C2314.665771,1051.351562 2313.564941,1054.943115 2318.000000,1054.000000   C2318.000000,1124.708496 2318.000000,1195.416870 2317.265137,1266.474854   C2315.822266,1268.247559 2314.667725,1269.612305 2314.472168,1271.102905   C2311.015137,1297.424072 2308.281250,1323.854980 2304.190674,1350.074951   C2294.071045,1414.939575 2277.607910,1478.236816 2256.098389,1540.267944   C2230.612549,1613.765015 2198.157715,1683.988770 2158.359131,1750.820679   C2104.070801,1841.984985 2038.871826,1924.413208 1961.984741,1997.660767   C1925.303955,2032.605347 1886.705688,2065.146729 1845.951294,2095.174316   C1795.194214,2132.572021 1741.626099,2165.451416 1685.422852,2193.976562   C1623.579224,2225.364746 1559.412231,2251.029541 1492.909180,2270.774414   C1424.887573,2290.969971 1355.628784,2305.012451 1285.026001,2312.291748   C1277.103149,2313.108643 1269.149780,2313.627441 1261.226318,2314.440186   C1259.364746,2314.630859 1256.195557,2314.228516 1258.000000,2318.000000   C1194.624878,2318.000000 1131.249756,2318.000000 1067.390625,2317.221680   C1065.106812,2315.747314 1063.342896,2314.562256 1061.502075,2314.427490   C1018.391541,2311.275635 975.783936,2304.679443 933.401733,2296.325928   C836.625122,2277.251709 744.019165,2245.759033 655.320129,2202.793213   C601.024536,2176.492432 549.224609,2145.873779 499.711334,2111.340332   C427.365326,2060.881836 361.512482,2003.070557 302.355560,1937.690063   C257.400574,1888.005493 217.035980,1834.785278 181.243332,1778.111206   C143.120392,1717.747314 110.908051,1654.365723 84.494156,1588.067261   C61.812084,1531.135620 43.809120,1472.698486 30.632320,1412.854492   C19.628988,1362.881348 11.359081,1312.440674 7.642954,1261.333984   C7.258441,1256.045776 6.782528,1250.753784 6.041510,1245.507080   C5.720472,1243.234009 4.802152,1240.566772 2.000000,1244.000000  M1026.336426,1605.000122   C1026.336426,1578.760010 1026.336426,1552.519897 1026.336426,1526.054688   C956.101501,1503.874634 894.790405,1468.032959 842.091431,1417.743652   C789.633301,1367.684326 750.789856,1308.606079 725.763489,1240.536743   C700.602173,1172.100098 692.297241,1101.449219 700.358093,1029.143188   C711.314209,930.867676 749.579590,844.162476 815.758057,770.695679   C905.718628,670.827454 1019.056396,619.765076 1153.127808,614.132996   C1153.763184,491.624695 1154.394287,369.943970 1155.027954,247.762299   C1106.837646,247.869843 1059.879883,252.747665 1013.230408,261.105927   C966.906067,269.405853 921.716064,281.958984 877.555176,298.063782   C833.062866,314.289429 790.292786,334.315521 749.181458,357.918488   C708.330261,381.372101 669.725586,408.058807 633.440002,438.015625   C596.881775,468.197540 563.128540,501.309937 532.192261,537.297485   C501.268707,573.270203 473.532349,611.523193 449.132660,652.173096   C424.922577,692.507202 404.253082,734.588745 387.242065,778.487854   C370.121552,822.669861 356.716522,867.904358 347.193481,914.312927   C337.660126,960.771851 332.527069,1007.729858 330.854523,1055.097046   C329.191864,1102.185181 332.101471,1149.045166 338.427399,1195.681641   C344.795258,1242.627930 355.444153,1288.646973 369.923492,1333.761719   C384.296661,1378.545654 402.316376,1421.793945 423.887421,1463.619385   C445.499207,1505.523804 471.163025,1544.889282 500.093567,1584.729492   C448.092834,1584.729492 398.593018,1584.729492 349.040802,1584.729492   C349.040802,1693.430908 349.040802,1801.216431 349.040802,1909.186523   C574.941528,1909.186523 800.134583,1909.186523 1026.336426,1909.186523   C1026.336426,1808.139893 1026.336426,1707.570068 1026.336426,1605.000122  M1297.663574,1672.999878   C1297.663574,1751.570190 1297.663574,1830.140503 1297.663574,1908.979370   C1523.434814,1908.979370 1748.196899,1908.979370 1972.925049,1908.979370   C1972.925049,1800.504761 1972.925049,1692.719238 1972.925049,1584.084961   C1924.401855,1584.084961 1876.613403,1584.084961 1827.044189,1584.084961   C1880.162354,1513.333374 1921.012695,1437.853149 1949.664917,1355.916260   C1978.405884,1273.725098 1994.134888,1189.206421 1996.044556,1102.136719   C1873.004272,1102.136719 1751.423584,1102.136719 1629.152588,1102.136719   C1623.725586,1200.748047 1591.536621,1289.239258 1530.904297,1366.866821   C1470.265015,1444.503174 1392.301514,1497.378662 1297.663574,1527.073242   C1297.663574,1575.108521 1297.663574,1623.054199 1297.663574,1672.999878  M1390.983032,980.999268   C1390.983032,1019.892456 1390.983032,1058.785645 1390.983032,1097.600342   C1471.940308,1097.600342 1551.721436,1097.600342 1632.488281,1097.600342   C1632.488281,1018.755188 1632.488281,940.636353 1632.488281,861.567505   C1711.610718,861.567505 1789.746826,861.567505 1867.877319,861.567505   C1867.877319,780.731934 1867.877319,700.859680 1867.877319,619.997009   C1828.198853,619.997009 1788.972656,620.051514 1749.746582,619.981689   C1710.605957,619.912048 1671.457520,620.294373 1631.716187,619.730042   C1631.716187,540.446045 1631.716187,462.559082 1631.716187,384.237366   C1551.328979,384.237366 1471.568970,384.237366 1390.757568,384.237366   C1390.757568,462.927917 1390.757568,541.057373 1390.757568,620.135620   C1311.567749,620.135620 1233.423340,620.135620 1155.012695,620.135620   C1155.012695,701.187256 1155.012695,781.277161 1155.012695,862.266479   C1233.866821,862.266479 1312.044922,862.266479 1390.983154,862.266479   C1390.983154,901.775574 1390.983154,940.387390 1390.983032,980.999268  z"
   id="path1"
   style="fill:#000000" />




<path
   fill="#FFFEFE"
   opacity="1.000000"
   stroke="none"
   d=" M1026.336426,1606.000244   C1026.336426,1707.570068 1026.336426,1808.139893 1026.336426,1909.186523   C800.134583,1909.186523 574.941528,1909.186523 349.040802,1909.186523   C349.040802,1801.216431 349.040802,1693.430908 349.040802,1584.729492   C398.593018,1584.729492 448.092834,1584.729492 500.093567,1584.729492   C471.163025,1544.889282 445.499207,1505.523804 423.887421,1463.619385   C402.316376,1421.793945 384.296661,1378.545654 369.923492,1333.761719   C355.444153,1288.646973 344.795258,1242.627930 338.427399,1195.681641   C332.101471,1149.045166 329.191864,1102.185181 330.854523,1055.097046   C332.527069,1007.729858 337.660126,960.771851 347.193481,914.312927   C356.716522,867.904358 370.121552,822.669861 387.242065,778.487854   C404.253082,734.588745 424.922577,692.507202 449.132660,652.173096   C473.532349,611.523193 501.268707,573.270203 532.192261,537.297485   C563.128540,501.309937 596.881775,468.197540 633.440002,438.015625   C669.725586,408.058807 708.330261,381.372101 749.181458,357.918488   C790.292786,334.315521 833.062866,314.289429 877.555176,298.063782   C921.716064,281.958984 966.906067,269.405853 1013.230408,261.105927   C1059.879883,252.747665 1106.837646,247.869843 1155.027954,247.762299   C1154.394287,369.943970 1153.763184,491.624695 1153.127808,614.132996   C1019.056396,619.765076 905.718628,670.827454 815.758057,770.695679   C749.579590,844.162476 711.314209,930.867676 700.358093,1029.143188   C692.297241,1101.449219 700.602173,1172.100098 725.763489,1240.536743   C750.789856,1308.606079 789.633301,1367.684326 842.091431,1417.743652   C894.790405,1468.032959 956.101501,1503.874634 1026.336426,1526.054688   C1026.336426,1552.519897 1026.336426,1578.760010 1026.336426,1606.000244  z"
   id="path6" />
<path
   fill="#FFFEFE"
   opacity="1.000000"
   stroke="none"
   d=" M1297.663574,1671.999756   C1297.663574,1623.054199 1297.663574,1575.108521 1297.663574,1527.073242   C1392.301514,1497.378662 1470.265015,1444.503174 1530.904297,1366.866821   C1591.536621,1289.239258 1623.725586,1200.748047 1629.152588,1102.136719   C1751.423584,1102.136719 1873.004272,1102.136719 1996.044556,1102.136719   C1994.134888,1189.206421 1978.405884,1273.725098 1949.664917,1355.916260   C1921.012695,1437.853149 1880.162354,1513.333374 1827.044189,1584.084961   C1876.613403,1584.084961 1924.401855,1584.084961 1972.925049,1584.084961   C1972.925049,1692.719238 1972.925049,1800.504761 1972.925049,1908.979370   C1748.196899,1908.979370 1523.434814,1908.979370 1297.663574,1908.979370   C1297.663574,1830.140503 1297.663574,1751.570190 1297.663574,1671.999756  z"
   id="path7" />
<path
   fill="#FFFEFE"
   opacity="1.000000"
   stroke="none"
   d=" M1390.983154,979.999268   C1390.983154,940.387390 1390.983154,901.775574 1390.983154,862.266479   C1312.044922,862.266479 1233.866821,862.266479 1155.012695,862.266479   C1155.012695,781.277161 1155.012695,701.187256 1155.012695,620.135620   C1233.423340,620.135620 1311.567749,620.135620 1390.757568,620.135620   C1390.757568,541.057373 1390.757568,462.927917 1390.757568,384.237366   C1471.568970,384.237366 1551.328979,384.237366 1631.716187,384.237366   C1631.716187,462.559082 1631.716187,540.446045 1631.716187,619.730042   C1671.457520,620.294373 1710.605957,619.912048 1749.746582,619.981689   C1788.972656,620.051514 1828.198853,619.997009 1867.877319,619.997009   C1867.877319,700.859680 1867.877319,780.731934 1867.877319,861.567505   C1789.746826,861.567505 1711.610718,861.567505 1632.488281,861.567505   C1632.488281,940.636353 1632.488281,1018.755188 1632.488281,1097.600342   C1551.721436,1097.600342 1471.940308,1097.600342 1390.983032,1097.600342   C1390.983032,1058.785645 1390.983032,1019.892456 1390.983154,979.999268  z"
   id="path8" />
</svg>
