<?xml version="1.0" encoding="UTF-8" standalone="no"?>
<svg
   version="1.1"
   id="Layer_1"
   x="0px"
   y="0px"
   width="100%"
   viewBox="0 0 5353 2057"
   enable-background="new 0 0 5353 2057"
   xml:space="preserve"
   sodipodi:docname="50ohm_ch.svg"
   inkscape:version="1.4.3 (0d15f75042, 2025-12-25)"
   xmlns:inkscape="http://www.inkscape.org/namespaces/inkscape"
   xmlns:sodipodi="http://sodipodi.sourceforge.net/DTD/sodipodi-0.dtd"
   xmlns="http://www.w3.org/2000/svg"
   xmlns:svg="http://www.w3.org/2000/svg"><defs
   id="defs7" /><sodipodi:namedview
   id="namedview7"
   pagecolor="#ffffff"
   bordercolor="#000000"
   borderopacity="0.25"
   inkscape:showpageshadow="2"
   inkscape:pageopacity="0.0"
   inkscape:pagecheckerboard="0"
   inkscape:deskcolor="#d1d1d1"
   inkscape:export-bgcolor="#ffffff00"
   inkscape:zoom="1.2376337"
   inkscape:cx="4894.4207"
   inkscape:cy="1088.3673"
   inkscape:window-width="1536"
   inkscape:window-height="891"
   inkscape:window-x="0"
   inkscape:window-y="0"
   inkscape:window-maximized="1"
   inkscape:current-layer="Layer_1"
   showguides="true"><sodipodi:guide
     position="4704.4843,959.97197"
     orientation="1,0"
     id="guide1"
     inkscape:locked="false" /></sodipodi:namedview>


<path
   fill="#FFFFFF"
   opacity="1"
   stroke="none"
   d="M 4423.7897,827.21874 H 4216.1901 V 578.68169 h 235.4361 V 342.62621 h 248.0854 v 235.76483 h 235.877 v 248.3924 h -233.9644 l -2.0466,237.34406 H 4452.1979 V 827.21874 Z"
   id="path1"
   style="fill:#ffffff;fill-opacity:1"
   sodipodi:nodetypes="cccccccccccccc" /><path
   fill="#FFFFFF"
   opacity="1.000000"
   stroke="none"
   d=" M2796.379395,265.578857   C2907.714355,328.461853 2982.889160,421.397003 3029.973145,538.299866   C3053.455566,596.603088 3067.595947,657.531555 3079.921875,718.924377   C3089.695557,767.604797 3096.661133,816.729553 3101.452393,866.135254   C3107.666504,930.214966 3110.190186,994.477295 3108.597900,1058.838989   C3107.576172,1100.139648 3106.548828,1141.483032 3103.770996,1182.689087   C3096.291748,1293.646362 3080.034912,1403.113403 3044.053955,1508.888062   C3026.083008,1561.717407 3002.948975,1612.091675 2972.416016,1658.982788   C2924.750732,1732.184814 2860.488770,1785.850342 2781.553955,1822.508301   C2729.630371,1846.621948 2675.134277,1862.128540 2618.897461,1872.176514   C2539.420654,1886.376831 2459.292480,1889.092041 2378.900879,1885.533203   C2314.199951,1882.668945 2250.265625,1873.917603 2188.094727,1854.968628   C2073.023926,1819.896729 1982.378540,1751.199097 1911.968384,1654.439209   C1868.443237,1594.625610 1840.437012,1527.756348 1820.427979,1457.131348   C1803.519531,1397.450195 1792.107788,1336.658569 1783.779663,1275.225830   C1771.712769,1186.212769 1767.475342,1096.752441 1768.400879,1007.027771   C1769.012817,947.708191 1771.749390,888.475769 1777.577148,829.389404   C1784.747559,756.689758 1796.229248,684.801758 1815.864990,614.349426   C1831.382690,558.672180 1852.034180,505.045288 1880.894409,454.829590   C1924.471558,379.006561 1985.619751,320.926086 2061.215576,277.678375   C2118.613281,244.841827 2180.318604,223.518036 2244.862549,210.107147   C2328.514404,192.726013 2413.105469,187.929153 2498.335449,191.386810   C2538.327148,193.009216 2578.032959,196.806442 2617.529053,203.349991   C2680.507568,213.783981 2739.719971,234.841965 2796.379395,265.578857  M2221.099609,968.099243   C2219.176514,1076.454102 2220.832764,1184.667603 2233.855469,1292.435425   C2238.253174,1328.828979 2244.540039,1364.861938 2254.002930,1400.312012   C2264.488281,1439.593262 2280.044189,1476.494629 2304.959717,1508.981201   C2333.629883,1546.363281 2370.369873,1569.789795 2418.040771,1574.718628   C2461.252197,1579.186646 2500.659912,1569.425659 2536.124023,1544.295288   C2566.010010,1523.117432 2586.684570,1494.503296 2602.160645,1461.746826   C2620.078369,1423.823242 2630.747070,1383.709839 2637.816406,1342.574951   C2647.484131,1286.320923 2651.517090,1229.476318 2653.537598,1172.540405   C2657.545410,1059.582642 2657.250000,946.654785 2648.222168,833.880676   C2644.578857,788.367554 2639.262695,743.072876 2629.811279,698.370911   C2622.221680,662.472290 2612.428467,627.290100 2594.455322,594.858154   C2579.249023,567.418213 2560.586182,542.998962 2534.905273,524.544373   C2503.425049,501.922516 2467.933594,493.050385 2429.514893,493.843323   C2373.356445,495.002380 2328.759033,518.007751 2295.994385,563.666626   C2275.525146,592.191040 2262.807861,624.224976 2253.835205,657.921875   C2237.389893,719.683472 2230.468262,782.882507 2226.291016,846.391418   C2223.667480,886.274597 2222.812744,926.274170 2221.099609,968.099243  z"
   id="path3"
   style="fill:#ac2d24;fill-opacity:1" />
<path
   fill="#FFFFFF"
   opacity="1.000000"
   stroke="none"
   d=" M1263.348389,1819.432373   C1196.099976,1851.062866 1125.769531,1868.812988 1053.067261,1878.236450   C977.424072,1888.041138 901.562378,1888.412231 825.550659,1884.484741   C765.889832,1881.401978 706.798401,1874.160645 648.699463,1860.054565   C583.307861,1844.177979 520.921570,1820.669434 464.316772,1783.671387   C384.972229,1731.810303 321.951843,1664.831421 278.066376,1580.367065   C254.647980,1535.294800 237.197220,1487.891846 222.398071,1439.430054   C221.933594,1437.909058 221.770050,1436.296143 221.241867,1433.567017   C374.875244,1416.791870 528.006714,1400.071655 681.115173,1383.353882   C684.908325,1400.220703 687.949829,1416.199707 692.143555,1431.870361   C700.285522,1462.294434 711.986938,1491.375000 730.528198,1517.011353   C778.199890,1582.925049 842.727051,1614.722900 924.196045,1608.429688   C1007.219055,1602.016479 1063.278809,1556.643799 1097.646851,1482.723633   C1113.824951,1447.927124 1120.640747,1410.546875 1123.970459,1372.520874   C1126.971924,1338.242920 1126.989380,1303.931030 1123.917725,1269.668945   C1119.932251,1225.214600 1111.192261,1181.872925 1088.813354,1142.610596   C1058.352173,1089.168213 1012.189758,1056.104370 952.158813,1044.398071   C863.432434,1027.096069 784.504211,1049.266724 716.332520,1108.512573   C701.282043,1121.592407 687.675171,1136.362061 673.754517,1150.694458   C669.897827,1154.665283 666.463013,1156.134644 660.794006,1155.286743   C616.013550,1148.590698 571.169800,1142.318970 526.354858,1135.852417   C482.197723,1129.480835 438.057922,1122.989258 393.898438,1116.634277   C359.295288,1111.654663 324.672424,1106.812500 290.062469,1101.879883   C287.109680,1101.459229 284.188385,1100.817383 280.067596,1100.060425   C328.148132,806.271423 376.178192,512.790955 424.300629,218.745941   C784.705811,218.745941 1144.877319,218.745941 1505.797119,218.745941   C1505.797119,339.397369 1505.797119,460.157990 1505.797119,581.771179   C1262.126709,581.771179 1018.268005,581.771179 773.717346,581.771179   C760.738098,663.561462 747.873718,744.628174 734.717773,827.532043   C739.646362,825.539124 742.928528,824.339844 746.105835,822.907898   C795.049072,800.850586 845.449402,783.171387 897.969543,771.665894   C950.633484,760.128967 1003.822083,755.124146 1057.730835,757.127747   C1114.219238,759.227234 1169.709595,767.051575 1223.928955,783.487549   C1285.798584,802.242554 1342.292725,831.266479 1392.827148,871.549683   C1452.290649,918.950684 1499.894653,976.168274 1533.514282,1044.620605   C1555.540527,1089.467651 1569.928955,1136.754883 1577.749390,1186.065674   C1584.933105,1231.361206 1586.583862,1276.964233 1583.582275,1322.632202   C1578.302856,1402.955078 1557.570557,1479.357788 1523.149170,1552.067383   C1498.644165,1603.830811 1468.514160,1651.926392 1430.090454,1694.631470   C1386.602295,1742.964966 1335.724487,1781.675781 1278.221069,1811.820435   C1273.510376,1814.289917 1268.753784,1816.671997 1263.348389,1819.432373  z"
   id="path4"
   style="fill:#ac2d24;fill-opacity:1" />
<path
   fill="#FFFFFF"
   opacity="1.000000"
   stroke="none"
   d=" M4093.665771,1628.000244   C4093.665771,1709.921631 4093.665771,1790.843018 4093.665771,1872.374390   C3866.865723,1872.374390 3640.999512,1872.374390 3414.398926,1872.374390   C3414.398926,1762.503784 3414.398926,1652.394897 3414.398926,1541.225098   C3463.454346,1541.225098 3512.551514,1541.225098 3562.315430,1541.225098   C3542.667236,1509.944336 3523.132080,1480.060547 3504.865234,1449.420776   C3486.436279,1418.509277 3471.420410,1385.813965 3457.968750,1352.421509   C3444.522461,1319.041992 3433.087158,1284.995239 3424.067871,1250.158691   C3415.045654,1215.312988 3408.330322,1180.017944 3403.916992,1144.285034   C3399.457764,1108.184814 3397.453369,1071.962891 3397.650879,1035.584229   C3397.846436,999.540039 3400.456787,963.706177 3405.239502,927.987488   C3410.019043,892.291687 3417.171875,857.090210 3426.587402,822.355286   C3436.001221,787.626221 3447.797607,753.688843 3461.679199,720.492920   C3475.563965,687.288452 3491.522949,655.115601 3509.591064,623.966492   C3527.670166,592.799194 3547.728271,562.994995 3569.571045,534.356201   C3591.434082,505.690887 3615.176025,478.651031 3640.601562,453.142761   C3666.027100,427.634369 3693.013428,403.832214 3721.590088,381.856354   C3750.401123,359.700714 3780.470215,339.458130 3811.840088,321.091003   C3842.897217,302.906952 3875.028076,286.869110 3908.172607,272.955170   C3941.295898,259.050201 3975.239258,247.416794 4009.910889,237.846924   C4044.614746,228.268250 4079.753906,220.988541 4115.387207,216.050888   C4150.974121,211.119690 4186.711914,208.274567 4223.666016,208.063690   C4223.666016,211.884323 4223.666016,214.791031 4223.666016,217.697739   C4223.666016,240.696762 4224.540039,263.734894 4223.513184,286.687958   C4219.328125,380.223328 4222.918457,473.792236 4221.652344,567.334473   C4221.621582,569.592346 4221.386719,571.847473 4221.209473,574.709961   C4086.853760,580.025818 3973.549072,631.050171 3883.407959,730.586365   C3818.537109,802.218323 3779.951660,886.767212 3768.233398,982.787720   C3754.569580,1094.749023 3777.874268,1198.897705 3839.297852,1293.679688   C3900.643311,1388.340820 3986.228271,1451.889160 4093.665771,1486.764282   C4093.665771,1533.707275 4093.665771,1580.353638 4093.665771,1628.000244  z"
   id="path5"
   style="fill:#ac2d24;fill-opacity:1" />
<path
   fill="#FFFFFF"
   opacity="1"
   stroke="none"
   d="m 5064.3477,1061.918 c -5.7027,176.8756 -61.0748,335.3767 -166.232,478.6922 13.6792,0.7382 25.7886,0.3084 37.8682,0.3857 11.9975,0.077 23.9966,0.017 35.9946,0.017 h 36.9942 c 11.9077,0 23.8154,-10e-5 36.1958,-10e-5 v 331.3015 h -680.2583 v -384.4009 c 120.8608,-38.5584 213.6323,-112.576 275.5947,-223.8886 34.5156,-62.0058 56.271,-200.8152 56.271,-200.8152 z"
   id="path6"
   style="fill:#ac2d24;fill-opacity:1"
   sodipodi:nodetypes="ccsssccccscc" />

</svg>
