<svg version="1.1" id="Logo_col" xmlns="http://www.w3.org/2000/svg" x="0" y="0" viewBox="0 0 117.1835938 240.4994965" xml:space="preserve"><style type="text/css">.st0{fill:#181716}.st1{fill:#ffd000}.st2{fill:none;stroke:#181716;stroke-width:.2}</style><path class="st0" d="M58.575 240.5L0 120.202 58.536 0l58.648 120.214z"/><path class="st1" d="M49.25 52.97h3.998v13.72c0 3.78-.534 7.248 5.373 7.248 5.51 0 5.09-3.927 5.09-7.247V52.97h3.998v15.073c0 5.513-2.764 9.038-9.087 9.038-5.628 0-9.37-3-9.37-9.037V52.97zM24.422 124.143c-.145 2.28 2.524 4.033 5.98 4.033 3.8 0 5.35-2.116 5.35-3.897 0-1.815-1.027-2.816-2.03-3.178-1.727-.627-3.752-1.01-7.37-1.672-4.285-.782-5.46-3.53-5.46-5.97 0-4.19 3.26-6.927 9.018-6.927 5.15 0 8.914 2.606 8.914 6.75H35.06c-.21-2.264-2.647-4.02-5.62-4.02-2.62 0-4.91.948-4.91 3.85 0 1.65 1.08 2.618 2.84 3.08.38.098 6.617 1.258 7.897 1.62 3.248.925 4.423 3.446 4.423 5.887 0 5.278-4.527 7.506-9.434 7.506-7.814 0-9.735-5.243-9.72-7.063h3.886zM76.536 107.094h3.997v11.553l10.17-11.553h4.473l-8.95 9.724 10.138 13.443h-4.51l-8.058-10.863-3.263 3.332v7.53h-3.997v-23.166zM56.585 164.594h4.75l8.157 23.27h-3.926l-1.793-4.868h-10l-1.67 4.868-3.83.007 8.312-23.276zm-1.5 15.246h7.938l-4.093-11.907h-.096l-3.75 11.907zM63.273 92.954v-9.31H60.12v23.515h3.153V95.984c3.272.588 5.764 3.45 5.764 6.887v43.52c0 3.488-.857 9.34-6.6 9.34h-.42c2.49-2.503 4.52-6.376 4.52-10.89 0-7.57-2.977-12.09-7.962-12.09-4.985 0-7.96 4.52-7.96 12.09 0 4.514 2.027 8.387 4.52 10.89h-.423c-5.74 0-6.6-5.852-6.6-9.34v-43.52c0-3.45 2.51-6.318 5.798-6.893v11.18h3.154V83.642H53.91v9.305c-4.948.6-8.797 4.817-8.797 9.924v43.52c0 7.726 3.588 12.34 9.6 12.34h1.528c.725 0 1.52-.2 2.335-.557.816.358 1.61.556 2.334.556h1.528c6.01 0 9.6-4.612 9.6-12.338v-43.52c0-5.095-3.832-9.305-8.765-9.918zm-4.698 61.717c-2.25-1.652-4.96-5.152-4.96-9.83 0-2.732.483-9.088 4.96-9.088 4.478 0 4.96 6.356 4.96 9.09 0 4.676-2.71 8.176-4.96 9.83z"/><path class="st1" d="M110.207 120.246L58.53 226.18 6.976 120.205l51.56-105.886 51.67 105.928zM58.547 22.97l-47.366 97.28 47.36 97.375 47.452-97.395-47.444-97.26z"/></svg>